<?xml version="1.0" encoding="UTF-8" standalone="no"?>
<!DOCTYPE svg PUBLIC "-//W3C//DTD SVG 1.1//EN"
 "http://www.w3.org/Graphics/SVG/1.1/DTD/svg11.dtd">
<!-- Generated by graphviz version 8.1.0 (20230707.0739)
 -->
<!-- Pages: 1 -->
<svg width="229pt" height="332pt"
 viewBox="0.00 0.00 229.00 332.00" xmlns="http://www.w3.org/2000/svg" xmlns:xlink="http://www.w3.org/1999/xlink">
<g id="graph0" class="graph" transform="scale(1 1) rotate(0) translate(4 328)">
<polygon fill="white" stroke="none" points="-4,4 -4,-328 225,-328 225,4 -4,4"/>
<!-- Variable1 -->
<g id="node1" class="node">
<title>Variable1</title>
<ellipse fill="none" stroke="black" cx="27" cy="-162" rx="27" ry="18"/>
<text text-anchor="middle" x="27" y="-157.8" font-family="Times,serif" font-size="14.00">x</text>
</g>
<!-- Variable2 -->
<g id="node2" class="node">
<title>Variable2</title>
<ellipse fill="none" stroke="black" cx="122" cy="-18" rx="27" ry="18"/>
<text text-anchor="middle" x="122" y="-13.8" font-family="Times,serif" font-size="14.00">x</text>
</g>
<!-- Real1 -->
<g id="node3" class="node">
<title>Real1</title>
<ellipse fill="none" stroke="black" cx="69" cy="-90" rx="27" ry="18"/>
<text text-anchor="middle" x="69" y="-85.8" font-family="Times,serif" font-size="14.00">2</text>
</g>
<!-- Real2 -->
<g id="node4" class="node">
<title>Real2</title>
<ellipse fill="none" stroke="black" cx="194" cy="-18" rx="27" ry="18"/>
<text text-anchor="middle" x="194" y="-13.8" font-family="Times,serif" font-size="14.00">2</text>
</g>
<!-- Subtract -->
<g id="node5" class="node">
<title>Subtract</title>
<ellipse fill="none" stroke="black" cx="106" cy="-306" rx="39.58" ry="18"/>
<text text-anchor="middle" x="106" y="-301.8" font-family="Times,serif" font-size="14.00">Subtract</text>
</g>
<!-- Add -->
<g id="node6" class="node">
<title>Add</title>
<ellipse fill="none" stroke="black" cx="70" cy="-234" rx="27" ry="18"/>
<text text-anchor="middle" x="70" y="-229.8" font-family="Times,serif" font-size="14.00">Add</text>
</g>
<!-- Subtract&#45;&gt;Add -->
<g id="edge1" class="edge">
<title>Subtract&#45;&gt;Add</title>
<path fill="none" stroke="black" d="M97.29,-288.05C93.11,-279.94 88.02,-270.04 83.37,-261.01"/>
<polygon fill="black" stroke="black" points="86.07,-259.6 78.39,-252.31 79.85,-262.8 86.07,-259.6"/>
</g>
<!-- 1 -->
<g id="node7" class="node">
<title>1</title>
<ellipse fill="none" stroke="black" cx="142" cy="-234" rx="27" ry="18"/>
<text text-anchor="middle" x="142" y="-229.8" font-family="Times,serif" font-size="14.00">1</text>
</g>
<!-- Subtract&#45;&gt;1 -->
<g id="edge2" class="edge">
<title>Subtract&#45;&gt;1</title>
<path fill="none" stroke="black" d="M114.71,-288.05C118.89,-279.94 123.98,-270.04 128.63,-261.01"/>
<polygon fill="black" stroke="black" points="132.15,-262.8 133.61,-252.31 125.93,-259.6 132.15,-262.8"/>
</g>
<!-- Add&#45;&gt;Variable1 -->
<g id="edge4" class="edge">
<title>Add&#45;&gt;Variable1</title>
<path fill="none" stroke="black" d="M60.03,-216.76C54.87,-208.37 48.46,-197.93 42.66,-188.5"/>
<polygon fill="black" stroke="black" points="45.14,-186.84 36.92,-180.15 39.17,-190.5 45.14,-186.84"/>
</g>
<!-- Multiply -->
<g id="node8" class="node">
<title>Multiply</title>
<ellipse fill="none" stroke="black" cx="113" cy="-162" rx="41.06" ry="18"/>
<text text-anchor="middle" x="113" y="-157.8" font-family="Times,serif" font-size="14.00">Multiply</text>
</g>
<!-- Add&#45;&gt;Multiply -->
<g id="edge3" class="edge">
<title>Add&#45;&gt;Multiply</title>
<path fill="none" stroke="black" d="M79.97,-216.76C85.06,-208.49 91.36,-198.23 97.09,-188.9"/>
<polygon fill="black" stroke="black" points="100.53,-190.99 102.78,-180.63 94.57,-187.32 100.53,-190.99"/>
</g>
<!-- Multiply&#45;&gt;Real1 -->
<g id="edge5" class="edge">
<title>Multiply&#45;&gt;Real1</title>
<path fill="none" stroke="black" d="M102.57,-144.41C97.29,-136.01 90.77,-125.63 84.88,-116.26"/>
<polygon fill="black" stroke="black" points="87.33,-114.59 79.05,-107.99 81.41,-118.32 87.33,-114.59"/>
</g>
<!-- Exponent -->
<g id="node9" class="node">
<title>Exponent</title>
<ellipse fill="none" stroke="black" cx="158" cy="-90" rx="44" ry="18"/>
<text text-anchor="middle" x="158" y="-85.8" font-family="Times,serif" font-size="14.00">Exponent</text>
</g>
<!-- Multiply&#45;&gt;Exponent -->
<g id="edge6" class="edge">
<title>Multiply&#45;&gt;Exponent</title>
<path fill="none" stroke="black" d="M123.66,-144.41C128.99,-136.13 135.55,-125.92 141.5,-116.66"/>
<polygon fill="black" stroke="black" points="144.95,-118.77 147.41,-108.47 139.06,-114.99 144.95,-118.77"/>
</g>
<!-- Exponent&#45;&gt;Variable2 -->
<g id="edge7" class="edge">
<title>Exponent&#45;&gt;Variable2</title>
<path fill="none" stroke="black" d="M149.29,-72.05C145.11,-63.94 140.02,-54.04 135.37,-45.01"/>
<polygon fill="black" stroke="black" points="138.07,-43.6 130.39,-36.31 131.85,-46.8 138.07,-43.6"/>
</g>
<!-- Exponent&#45;&gt;Real2 -->
<g id="edge8" class="edge">
<title>Exponent&#45;&gt;Real2</title>
<path fill="none" stroke="black" d="M166.71,-72.05C170.89,-63.94 175.98,-54.04 180.63,-45.01"/>
<polygon fill="black" stroke="black" points="184.15,-46.8 185.61,-36.31 177.93,-43.6 184.15,-46.8"/>
</g>
</g>
</svg>
