<svg xmlns="http://www.w3.org/2000/svg" xmlns:xlink="http://www.w3.org/1999/xlink" width="175pt" height="332pt" viewBox="0.00 0.00 175.00 332.00">
<g id="graph0" class="graph" transform="scale(1 1) rotate(0) translate(4 328)">
<polygon fill="white" stroke="none" points="-4,4 -4,-328 171,-328 171,4 -4,4"/>
<!-- Variable1 -->
<g id="node1" class="node">
<title>Variable1</title>
<ellipse fill="none" stroke="black" cx="18" cy="-162" rx="18" ry="18"/>
<text text-anchor="middle" x="18" y="-157.8" font-family="Times,serif" font-size="14.00">x</text>
</g>
<!-- Variable2 -->
<g id="node2" class="node">
<title>Variable2</title>
<ellipse fill="none" stroke="black" cx="95" cy="-18" rx="18" ry="18"/>
<text text-anchor="middle" x="95" y="-13.8" font-family="Times,serif" font-size="14.00">x</text>
</g>
<!-- Real1 -->
<g id="node3" class="node">
<title>Real1</title>
<ellipse fill="none" stroke="black" cx="51" cy="-90" rx="18" ry="18"/>
<text text-anchor="middle" x="51" y="-85.8" font-family="Times,serif" font-size="14.00">2</text>
</g>
<!-- Real2 -->
<g id="node4" class="node">
<title>Real2</title>
<ellipse fill="none" stroke="black" cx="149" cy="-18" rx="18" ry="18"/>
<text text-anchor="middle" x="149" y="-13.8" font-family="Times,serif" font-size="14.00">2</text>
</g>
<!-- Subtract -->
<g id="node5" class="node">
<title>Subtract</title>
<polygon fill="none" stroke="black" points="114.33,-324 51.67,-324 51.67,-288 114.33,-288 114.33,-324"/>
<text text-anchor="middle" x="83" y="-301.8" font-family="Times,serif" font-size="14.00">Subtract</text>
</g>
<!-- Add -->
<g id="node6" class="node">
<title>Add</title>
<polygon fill="none" stroke="black" points="79,-252 25,-252 25,-216 79,-216 79,-252"/>
<text text-anchor="middle" x="52" y="-229.8" font-family="Times,serif" font-size="14.00">Add</text>
</g>
<!-- Subtract&#45;&gt;Add -->
<g id="edge1" class="edge">
<title>Subtract-&gt;Add</title>
<path fill="none" stroke="black" d="M75.34,-287.7C71.96,-280.07 67.91,-270.92 64.13,-262.4"/>
<polygon fill="black" stroke="black" points="67.44,-261.21 60.19,-253.49 61.04,-264.05 67.44,-261.21"/>
</g>
<!-- 1 -->
<g id="node7" class="node">
<title>1</title>
<ellipse fill="none" stroke="black" cx="115" cy="-234" rx="18" ry="18"/>
<text text-anchor="middle" x="115" y="-229.8" font-family="Times,serif" font-size="14.00">1</text>
</g>
<!-- Subtract&#45;&gt;1 -->
<g id="edge2" class="edge">
<title>Subtract-&gt;1</title>
<path fill="none" stroke="black" d="M90.91,-287.7C94.59,-279.64 99.06,-269.88 103.13,-260.96"/>
<polygon fill="black" stroke="black" points="106.23,-262.6 107.21,-252.05 99.87,-259.69 106.23,-262.6"/>
</g>
<!-- Add&#45;&gt;Variable1 -->
<g id="edge4" class="edge">
<title>Add-&gt;Variable1</title>
<path fill="none" stroke="black" d="M43.6,-215.7C39.68,-207.64 34.94,-197.88 30.61,-188.96"/>
<polygon fill="black" stroke="black" points="33.79,-187.5 26.27,-180.03 27.49,-190.56 33.79,-187.5"/>
</g>
<!-- Multiply -->
<g id="node8" class="node">
<title>Multiply</title>
<polygon fill="none" stroke="black" points="119.5,-180 54.5,-180 54.5,-144 119.5,-144 119.5,-180"/>
<text text-anchor="middle" x="87" y="-157.8" font-family="Times,serif" font-size="14.00">Multiply</text>
</g>
<!-- Add&#45;&gt;Multiply -->
<g id="edge3" class="edge">
<title>Add-&gt;Multiply</title>
<path fill="none" stroke="black" d="M60.65,-215.7C64.47,-208.07 69.04,-198.92 73.3,-190.4"/>
<polygon fill="black" stroke="black" points="76.43,-191.97 77.77,-181.46 70.17,-188.84 76.43,-191.97"/>
</g>
<!-- Multiply&#45;&gt;Real1 -->
<g id="edge5" class="edge">
<title>Multiply-&gt;Real1</title>
<path fill="none" stroke="black" d="M78.1,-143.7C73.85,-135.43 68.68,-125.38 64,-116.28"/>
<polygon fill="black" stroke="black" points="67.2,-114.84 59.51,-107.55 60.97,-118.04 67.2,-114.84"/>
</g>
<!-- Exponent -->
<g id="node9" class="node">
<title>Exponent</title>
<polygon fill="none" stroke="black" points="156.83,-108 87.17,-108 87.17,-72 156.83,-72 156.83,-108"/>
<text text-anchor="middle" x="122" y="-85.8" font-family="Times,serif" font-size="14.00">Exponent</text>
</g>
<!-- Multiply&#45;&gt;Exponent -->
<g id="edge6" class="edge">
<title>Multiply-&gt;Exponent</title>
<path fill="none" stroke="black" d="M95.65,-143.7C99.47,-136.07 104.04,-126.92 108.3,-118.4"/>
<polygon fill="black" stroke="black" points="111.43,-119.97 112.77,-109.46 105.17,-116.84 111.43,-119.97"/>
</g>
<!-- Exponent&#45;&gt;Variable2 -->
<g id="edge7" class="edge">
<title>Exponent-&gt;Variable2</title>
<path fill="none" stroke="black" d="M115.33,-71.7C112.3,-63.84 108.64,-54.37 105.27,-45.63"/>
<polygon fill="black" stroke="black" points="108.64,-44.63 101.77,-36.56 102.11,-47.15 108.64,-44.63"/>
</g>
<!-- Exponent&#45;&gt;Real2 -->
<g id="edge8" class="edge">
<title>Exponent-&gt;Real2</title>
<path fill="none" stroke="black" d="M128.67,-71.7C131.7,-63.84 135.36,-54.37 138.73,-45.63"/>
<polygon fill="black" stroke="black" points="141.89,-47.15 142.23,-36.56 135.36,-44.63 141.89,-47.15"/>
</g>
</g>
</svg>